PathFileType	4	(X/Y/Z)	/home/abdul/Desktop/myosuite/custom_workspace/IK/output/S1_12_1.trc
DataRate	CameraRate	NumFrames	NumMarkers	Units	OrigDataRate	OrigDataStartFrame	OrigNumFrames
200.0	200.0	50	3	mm	200.0	1756	3511
Frame#	Time	V_Shoulder			V_Elbow			V_Wrist		
		X1	Y1	Z1	X2	Y2	Z2	X3	Y3	Z3

1756	8.775	-195.4764390751784	601.6786918779569	367.5741572841278	-351.62162251623715	578.1304715425049	14.343790640615737	-295.29034589472406	313.99911659785903	55.40675729046903
1757	8.78	-195.31650979729818	601.7058290021768	367.51750037613925	-351.46703863933817	578.345097558133	14.239885334573724	-295.2344961026448	314.1542264787133	55.33142424336265
1758	8.785	-195.15358783199585	601.7403721414668	367.4579592774503	-351.30996245193444	578.5700144046843	14.132721762338798	-295.17678620161	314.3188893988431	55.25141675559642
1759	8.79	-194.98763513463823	601.7821775099284	367.3956806862691	-351.15070670643814	578.8051578710428	14.022626586662673	-295.1173879254818	314.4930702730013	55.166892927959445
1760	8.795	-194.81861452523285	601.8310927850796	367.3308208588357	-350.98960123309365	579.0504243978733	13.90995562667326	-295.0564755034428	314.67670093120546	55.07804031916767
1761	8.8	-194.64648967963151	601.8869572871765	367.26354558621324	-350.8269928730774	579.3056706164592	13.795094192373785	-294.9942256505202	314.86967970657065	54.985076610856794
1762	8.805	-194.47122512608868	601.9496021550826	367.19403013802366	-350.66324535364754	579.5707129855036	13.678457320417534	-294.9308175621445	315.07187109866726	54.888250196941996
1763	8.81	-194.29278624793884	602.0188505186169	367.12245917187994	-350.4987391028873	579.8453275277523	13.560489906268106	-294.8664329113599	315.2831055137026	54.78784069259289
1764	8.815	-194.11113929311273	602.094517667409	367.0490266074128	-350.33387100175685	580.1292496680455	13.44166672819208	-294.8012558472306	315.5031790826294	54.68415935821058
1765	8.82	-193.92625139116618	602.1764112163829	366.97393546394034	-350.16905407135846	580.4221741741477	13.32249235889981	-294.73547299292403	315.73185355808965	54.577549433955426
1766	8.825	-193.7380905784411	602.2643312680808	366.89739766099234	-350.00471709352485	580.7237552014376	13.203500961049937	-294.66927344189116	315.9688562909057	54.46838638055975
1767	8.83	-193.54662583191956	602.3580705721323	366.8196337810748	-349.8413041630621	581.0336064422756	13.085255963262721	-294.6028487505121	316.2138802866333	54.35707802236921
1768	8.835	-193.35182711226946	602.4574146822572	366.7408727942361	-349.6792741702196	581.3513013805944	12.968349613745076	-294.5363929255294	316.4665843424927	54.244064588789826
1769	8.84	-193.15366541651176	602.562142111272	366.6613517441877	-349.5191002122134	581.676373651977	12.853402409114434	-294.4701024045533	316.7265932647996	54.129818650574514
1770	8.845	-192.95211284066772	602.6720244846471	366.5813153959205	-349.36126893290015	582.008317509215	12.741062396517712	-294.40417602789364	316.9934981668183	54.01484494766288
1771	8.85	-192.7471426526691	602.7868266932293	366.5010158449618	-349.2062797899864	582.3465883930518	12.632004347673195	-294.33881499995334	317.26685684676676	53.899680105591145
1772	8.855	-192.53872937573593	602.9063070458104	366.4207120886117	-349.0546442494587	582.6906036075329	12.526928804015466	-294.274222838405	317.5461942455098	53.78489223781389
1773	8.86	-192.32684888234522	603.0302174222797	366.3406695597112	-348.90688490723255	583.0397430991007	12.42656099269357	-294.21060530937393	317.8310029832831	53.67108043162648
1774	8.865	-192.11147849883002	603.1583034281431	366.2611596236923	-348.7635345383503	583.3933503382812	12.331649613758412	-294.1481703468579	318.12074397460344	53.55887411574353
1775	8.87	-191.89259712056491	603.290304551235	366.1824590398716	-348.6251350743921	583.7507333025218	12.242965499473778	-294.0871279546373	318.4148471203333	53.44893230797672
1776	8.875	-191.67018533760722	603.4259543214793	366.1048493881524	-348.49223651011846	584.111165558455	12.161300147294016	-294.0276900889594	318.71271207568316	53.34194274186014
1777	8.88	-191.44422557057644	603.5649804745764	366.02861646250176	-348.365395740719	584.4738874415648	12.087464128666696	-293.97007052032734	319.01370909275465	53.23862087149489
1778	8.885	-191.21470221646987	603.7071051205074	365.95404963277065	-348.24517533141204	584.8381073309536	12.02228537643812	-293.91448467278076	319.3171799360505	53.13970875432379
1779	8.89	-190.98160180402556	603.8520449177499	365.8814411766171	-348.1321422215095	585.2030030166159	11.96660735425953	-293.86114943912366	319.6224388692008	53.0459738120012
1780	8.895	-190.74491315816007	603.9995112540896	365.81108558348154	-348.02686636544263	585.5677231563432	11.921287112009688	-293.81028297064125	319.92877371098734	52.95820746999006
1781	8.9	-190.5046275729259	604.1492104348972	365.74327883274333	-347.9299193136211	585.9313888191002	11.887193231861364	-293.7621044399407	320.235446958578	52.87722367699765
1782	8.905	-190.26073899235462	604.3008438797134	365.678317648362	-347.84187273638054	586.2930951114403	11.865203670221945	-293.7168337756611	320.54169697572445	52.80385730585038
1783	8.91	-190.01324419847273	604.4541083279429	365.61649873246415	-347.7632968946503	586.6519128832463	11.856203501368771	-293.6746913679217	320.8467392435134	52.73896243790584
1784	8.915	-189.7621430057055	604.6086960544193	365.5581179804946	-347.69475906134977	587.0068905088237	11.861082569174027	-293.635897743511	321.1497676711125	52.6834105336045
1785	8.92	-189.50743846081437	604.7642950955375	365.5034696806859	-347.63682189788886	587.3570557391068	11.880733053869257	-293.60067320996956	321.4499559637983	52.63808849227205
1786	8.925	-189.24913704744736	604.9205894865921	365.4528457007268	-347.59004179050606	587.7014176204834	11.916046961332093	-293.5692374678804	321.74645904541364	52.60389660479599
1787	8.93	-188.98724889432273	605.0772595108803	365.40653466462635	-347.5549671515282	588.0389684755016	11.967913542884443	-293.5418091908505	322.0384145322593	52.581746403312216
1788	8.935	-188.72178798601172	605.2339819610523	365.3648211228651	-347.5321366909675	588.3686859404838	12.037216654068944	-293.51860557285556	322.3249442552931	52.57255841254933
1789	8.94	-188.4527723752376	605.3904304130964	365.3279847190127	-347.52207766418906	588.6895350548435	12.124832061316088	-293.49984184281027	322.6051558273808	52.57725980798703
1790	8.945	-188.18022439556384	605.5462755132525	365.2962993560511	-347.52530410168185	589.000470396694	12.231624705824492	-293.4857307464341	322.8781442522224	52.5967819864878
1791	8.95	-187.90417087331127	605.701185278046	365.27003236570107	-347.5423150272386	589.3004382591287	12.358445934349078	-293.47648199569466	323.1429935714589	52.63205805555667
1792	8.955	-187.62464333751151	605.8548254075253	365.24944368407733	-347.57359267110536	589.5883788613696	12.506130706923372	-293.47230168632956	323.39877854635836	52.68402024786988
1793	8.96	-187.34167822668417	606.0068596116737	365.23478503701836	-347.61960068488384	589.8632285888068	12.675494791830243	-293.4733916841782	323.64456637037557	52.753597268186
1794	8.965	-187.055317091209	606.156949949855	365.22629913843093	-347.6807823651666	590.1239222557942	12.867331958377978	-293.47994898128377	323.87941840878534	52.84171158021209
1795	8.97	-186.76560679005684	606.3047571830284	365.2242189049769	-347.7575588930473	590.3693953849306	13.082411178233526	-293.4921650229644	324.1023919615013	52.94927664143887
1796	8.975	-186.47259968064384	606.4499411383571	365.22876669038686	-347.85032759678086	590.5985864964302	13.321473846209699	-293.5102250072883	324.3125420451131	53.07719409438029
1797	8.98	-186.17635380057936	606.5921610857067	365.24015354263537	-347.95946024496084	590.8104394010951	13.58523103149738	-293.5343071586284	324.50892319010114	53.22635092305218
1798	8.985	-185.87693304009494	606.7310761254223	365.2585784871406	-348.08530137764006	591.0039054903096	13.874360770375137	-293.56458197720735	324.690591249129	53.39761658389851
1799	8.99	-185.57440730396266	606.8663455866426	365.2842278390603	-348.2281666828384	591.1779460164335	14.18950541141666	-293.6012114667792	324.8566052122552	53.59184012071981
1800	8.995	-185.2688526617417	606.99762943531	365.3172745476555	-348.38834142585904	591.3315343569229	14.531269024149827	-293.6443483428245	325.00602902486605	53.80984727347396
1801	9.0	-184.9603514852288	607.1245886909127	365.35787757556704	-348.5660789387739	591.4636582555052	14.900214882000274	-293.69413522385753	325.13793340409387	54.05243759110121
1802	9.005	-184.64899257203228	607.2468858509001	365.40618131571824	-348.76159917732997	591.5733220337436	15.296863030176262	-293.75070380866003	325.2513976494621	54.3203815587713
1803	9.01	-184.33487125423972	607.3641853216058	365.4623150484035	-348.9750873523864	591.6595487663674	15.721687948921295	-293.81417404246076	325.3455114434858	54.61441775015757
1804	9.015	-184.01808949120678	607.4761538544244	365.5263924409585	-349.206692642798	591.7213824138055	16.17511632227658	-293.88465327527115	325.4193766379515	54.935250015508025
1805	9.02	-183.69875594555765	607.5824609859029	365.5985110922301	-349.4565269964313	591.7578899054579	16.657524922158064	-293.96223541576785	325.4721090216119	55.28354471640483
